# xmcd CD database file
#
# Track frame offsets:
#	150
#	24418
#	38238
#	49868
#	66410
#	82905
#	96243
#	110908
#	135870
#	151442
#	165415
#	178005
#	189321
#	201577
#
# Disc length: 2926 seconds
#
# Revision: 0
# Processed by: cddbd v1.5.1PL0 Copyright (c) Steve Scherf et al.
# Submitted via: CDex 1.51
#
DISCID=bb0b6c0e
DTITLE=La charanga New York - Canta Yesid Perez
DYEAR=1900
DGENRE=Salsa
TTITLE0=El yo yo
TTITLE1=El ajiaco
TTITLE2=Cha cha cha con pachanga
TTITLE3=Pachanga en la playa
TTITLE4=Mi mambo rock
TTITLE5=Lluvia con nieve
TTITLE6=Me voy pà las villas
TTITLE7=8 sofrito
TTITLE8=Llogò la pachanga
TTITLE9=La pachanga se baila asì
TTITLE10=La pachanga "Fajardos charanga"
TTITLE11=Acuyuyè
TTITLE12=Conmigo
TTITLE13=Isla del encanto
EXTD=
EXTT0=
EXTT1=
EXTT2=
EXTT3=
EXTT4=
EXTT5=
EXTT6=
EXTT7=
EXTT8=
EXTT9=
EXTT10=
EXTT11=
EXTT12=
EXTT13=
PLAYORDER=
